<svg width="256" height="256" viewBox="0 0 256 256" fill="none" xmlns="http://www.w3.org/2000/svg">
<path d="M246.94 27.64L194.19 2.23999C188.09 -0.70001 180.79 0.53999 176 5.32999L3.32 162.77C-1.32 167.01 -1.32 174.32 3.33 178.55L17.43 191.37C21.23 194.83 26.96 195.08 31.05 191.98L239 34.23C245.98 28.94 256 33.91 256 42.67V42.06C256 35.91 252.48 30.3 246.94 27.64Z" fill="#908CAA"/>
<path d="M246.94 228.36L194.19 253.76C188.09 256.7 180.79 255.46 176 250.67L3.32 93.23C-1.32 89 -1.32 81.68 3.33 77.46L17.43 64.64C21.23 61.18 26.96 60.93 31.05 64.03L239 221.77C245.98 227.06 256 222.09 256 213.33V213.94C256 220.09 252.48 225.7 246.94 228.36Z" fill="#908CAA"/>
<path d="M194.2 253.76C188.09 256.7 180.8 255.46 176 250.66C181.9 256.56 192 252.38 192 244.03V11.96C192 3.61 181.9 -0.569998 176 5.33C180.79 0.540002 188.09 -0.699998 194.2 2.23L246.94 27.59C252.48 30.26 256.01 35.86 256.01 42.01V213.98C256.01 220.13 252.49 225.73 246.94 228.4L194.2 253.76Z" fill="#908CAA"/>
<g opacity="0.25">
<path fill-rule="evenodd" clip-rule="evenodd" d="M181.38 254.25C185.41 255.82 190.01 255.72 194.08 253.76L246.79 228.4C252.33 225.74 255.85 220.13 255.85 213.98V42.02C255.85 35.87 252.33 30.27 246.79 27.6L194.08 2.23999C188.74 -0.33001 182.49 0.29999 177.8 3.70999C177.13 4.19999 176.49 4.73999 175.89 5.33999L74.99 97.39L31.04 64.02C26.95 60.91 21.23 61.17 17.43 64.63L3.33 77.45C-1.32 81.68 -1.32 88.99 3.32 93.23L41.44 128L3.32 162.77C-1.32 167.01 -1.32 174.32 3.33 178.55L17.43 191.37C21.23 194.83 26.95 195.08 31.04 191.98L74.99 158.62L175.89 250.67C177.49 252.26 179.36 253.47 181.38 254.25ZM191.88 69.89L115.32 128L191.88 186.12V69.89Z" fill="url(#paint0_linear_1_3)"/>
</g>
<defs>
<linearGradient id="paint0_linear_1_3" x1="127.844" y1="0.65999" x2="127.844" y2="255.34" gradientUnits="userSpaceOnUse">
<stop stop-color="#313131"/>
<stop offset="1" stop-color="white" stop-opacity="0"/>
</linearGradient>
</defs>
</svg>
